<mxfile host="app.diagrams.net" agent="Mozilla/5.0 (Windows NT 10.0; Win64; x64) AppleWebKit/537.36 (KHTML, like Gecko) Chrome/130.0.0.0 Safari/537.36" version="24.8.6">
  <diagram name="PÃ¡gina-1" id="OaM5tMeellGmC0y-lCj_">
    <mxGraphModel dx="810" dy="1990" grid="0" gridSize="10" guides="1" tooltips="1" connect="1" arrows="1" fold="1" page="0" pageScale="1" pageWidth="827" pageHeight="1169" math="0" shadow="0">
      <root>
        <mxCell id="0" />
        <mxCell id="1" parent="0" />
        <mxCell id="M0voYOe-LNgEfArzRT5w-5" value="" style="ellipse;whiteSpace=wrap;html=1;aspect=fixed;background-color=#00000000;fillColor=none;" vertex="1" parent="1">
          <mxGeometry x="166" y="26" width="214" height="214" as="geometry" />
        </mxCell>
        <mxCell id="M0voYOe-LNgEfArzRT5w-6" value="" style="ellipse;whiteSpace=wrap;html=1;aspect=fixed;background-color=#00000000;fillColor=none;" vertex="1" parent="1">
          <mxGeometry x="102" y="-90" width="214" height="214" as="geometry" />
        </mxCell>
        <mxCell id="M0voYOe-LNgEfArzRT5w-7" value="" style="ellipse;whiteSpace=wrap;html=1;aspect=fixed;background-color=#00000000;fillColor=none;" vertex="1" parent="1">
          <mxGeometry x="36" y="26" width="214" height="214" as="geometry" />
        </mxCell>
        <mxCell id="M0voYOe-LNgEfArzRT5w-15" style="edgeStyle=none;curved=1;rounded=0;orthogonalLoop=1;jettySize=auto;html=1;exitX=1;exitY=0.5;exitDx=0;exitDy=0;entryX=0;entryY=0.5;entryDx=0;entryDy=0;fontSize=12;startSize=8;endSize=8;" edge="1" parent="1" source="M0voYOe-LNgEfArzRT5w-8" target="M0voYOe-LNgEfArzRT5w-13">
          <mxGeometry relative="1" as="geometry" />
        </mxCell>
        <mxCell id="M0voYOe-LNgEfArzRT5w-8" value="Plataformero 2D" style="rounded=0;whiteSpace=wrap;html=1;" vertex="1" parent="1">
          <mxGeometry x="-378" y="-892" width="120" height="60" as="geometry" />
        </mxCell>
        <mxCell id="M0voYOe-LNgEfArzRT5w-16" style="edgeStyle=none;curved=1;rounded=0;orthogonalLoop=1;jettySize=auto;html=1;exitX=1;exitY=0.5;exitDx=0;exitDy=0;fontSize=12;startSize=8;endSize=8;" edge="1" parent="1" source="M0voYOe-LNgEfArzRT5w-9">
          <mxGeometry relative="1" as="geometry">
            <mxPoint x="-72.85714285714289" y="-814.7619047619048" as="targetPoint" />
          </mxGeometry>
        </mxCell>
        <mxCell id="M0voYOe-LNgEfArzRT5w-9" value="Ponis" style="rounded=0;whiteSpace=wrap;html=1;" vertex="1" parent="1">
          <mxGeometry x="-260" y="-702" width="120" height="60" as="geometry" />
        </mxCell>
        <mxCell id="M0voYOe-LNgEfArzRT5w-13" value="No violencia" style="rounded=0;whiteSpace=wrap;html=1;" vertex="1" parent="1">
          <mxGeometry x="-72" y="-843" width="120" height="60" as="geometry" />
        </mxCell>
      </root>
    </mxGraphModel>
  </diagram>
</mxfile>
